<?xml version="1.0" encoding="UTF-8" standalone="no"?>
<!-- Created with Inkscape (http://www.inkscape.org/) -->

<svg
   width="1900"
   height="512"
   viewBox="0 0 502.70868 135.46666"
   version="1.1"
   id="svg5"
   xml:space="preserve"
   sodipodi:docname="logo-light.svg"
   inkscape:version="1.2.2 (b0a8486541, 2022-12-01)"
   inkscape:export-filename="logo-light.png"
   inkscape:export-xdpi="109.47681"
   inkscape:export-ydpi="109.47681"
   xmlns:inkscape="http://www.inkscape.org/namespaces/inkscape"
   xmlns:sodipodi="http://sodipodi.sourceforge.net/DTD/sodipodi-0.dtd"
   xmlns="http://www.w3.org/2000/svg"
   xmlns:svg="http://www.w3.org/2000/svg"><sodipodi:namedview
     id="namedview7"
     pagecolor="#ffffff"
     bordercolor="#999999"
     borderopacity="1"
     inkscape:showpageshadow="0"
     inkscape:pageopacity="0"
     inkscape:pagecheckerboard="0"
     inkscape:deskcolor="#d1d1d1"
     inkscape:document-units="mm"
     showgrid="true"
     inkscape:zoom="0.7071068"
     inkscape:cx="636.39609"
     inkscape:cy="214.96046"
     inkscape:window-width="2560"
     inkscape:window-height="1371"
     inkscape:window-x="0"
     inkscape:window-y="0"
     inkscape:window-maximized="1"
     inkscape:current-layer="layer1"
     inkscape:lockguides="true"><inkscape:grid
       type="xygrid"
       id="grid365"
       spacingx="3.96875"
       spacingy="3.96875"
       originx="-35.713111"
       originy="-79.373109" /></sodipodi:namedview><defs
     id="defs2" /><g
     inkscape:label="Layer 1"
     inkscape:groupmode="layer"
     id="layer1"
     transform="translate(-35.718758,-79.375)"><text
       xml:space="preserve"
       style="font-size:78.5714px;font-family:Overpass;-inkscape-font-specification:Overpass;fill:#ffffff;stroke-width:0.026536;-inkscape-stroke:none;stop-color:#000000"
       x="183.35872"
       y="174.73735"
       id="text452"><tspan
         sodipodi:role="line"
         id="tspan450"
         style="fill:#1a1a1a;stroke-width:0.026536"
         x="183.35872"
         y="174.73735">LatenSee</tspan></text><circle
       style="fill:#ffffff;fill-opacity:1;stroke:none;stroke-width:0.0335571;-inkscape-stroke:none;stop-color:#000000"
       id="path10324"
       cx="103.45155"
       cy="147.10834"
       r="67.733345" /><g
       inkscape:label="Layer 1"
       id="layer1-3"
       transform="matrix(0.99999189,0,0,0.99999189,2.9019101e-4,6.5173453e-4)"><circle
         style="fill:#ffffff;fill-opacity:1;stroke:none;stroke-width:0.0335571;-inkscape-stroke:none;stop-color:#000000"
         id="path10324-5"
         cx="103.4521"
         cy="147.10834"
         r="67.733345" /><g
         id="g419"
         transform="matrix(1.146223,0,0,1.146223,-15.127079,-21.510629)"><path
           d="m 116.79195,136.62702 v 2.85854 c 0,2.63224 -5.97315,4.76424 -13.33986,4.76424 -7.366686,0 -13.339844,-2.132 -13.339844,-4.76424 v -2.85854 c 0,-2.63224 5.973158,-4.76423 13.339844,-4.76423 7.36671,0 13.33986,2.13199 13.33986,4.76423 z m -3.26351,8.02179 c 1.23872,-0.44069 2.37617,-1.00645 3.26351,-1.70322 v 6.06844 c 0,2.63225 -5.97315,4.76423 -13.33986,4.76423 -7.366686,0 -13.339844,-2.13198 -13.339844,-4.76423 v -6.06844 c 0.887338,0.70273 2.024799,1.26253 3.263496,1.70322 2.67393,0.95284 6.235193,1.50669 10.076348,1.50669 3.84117,0 7.40244,-0.55385 10.07635,-1.50669 z m -23.416194,7.82525 c 0.887338,0.70273 2.024799,1.26253 3.263496,1.70322 2.67393,0.95284 6.235193,1.50668 10.076348,1.50668 3.84117,0 7.40244,-0.55384 10.07635,-1.50668 1.23872,-0.44069 2.37617,-1.00645 3.26351,-1.70322 v 5.11561 c 0,2.63224 -5.97315,4.76423 -13.33986,4.76423 -7.366686,0 -13.339844,-2.13199 -13.339844,-4.76423 z"
           id="path295"
           style="stroke-width:0.0595527" /><path
           d="m 103.44373,109.60882 c -13.526615,0 -24.35795,6.16063 -32.242899,13.49313 -7.834718,7.26554 -13.074607,15.97078 -15.552254,21.94726 -0.552448,1.32254 -0.552448,2.79573 0,4.11826 2.477647,5.97648 7.717536,14.68173 15.552254,21.94726 7.884949,7.3325 18.716284,13.49314 32.242899,13.49314 13.52662,0 24.35795,-6.16064 32.2429,-13.49314 7.83472,-7.28227 13.07462,-15.97078 15.569,-21.94726 0.55244,-1.32253 0.55244,-2.79572 0,-4.11826 -2.49438,-5.97648 -7.73428,-14.68172 -15.569,-21.94726 -7.88495,-7.3325 -18.71628,-13.49313 -32.2429,-13.49313 z m -24.106841,37.49952 c 0,-13.31385 10.793,-24.10682 24.106841,-24.10682 13.31385,0 24.10685,10.79297 24.10685,24.10682 0,13.31385 -10.793,24.10683 -24.10685,24.10683 -13.313841,0 -24.106841,-10.79298 -24.106841,-24.10683 z"
           id="path304"
           style="stroke-width:0.167408"
           sodipodi:nodetypes="sccccsccccssssss" /></g></g></g></svg>
